<?xml version="1.0" standalone="no"?>
<!DOCTYPE svg PUBLIC "-//W3C//DTD SVG 20010904//EN"
 "http://www.w3.org/TR/2001/REC-SVG-20010904/DTD/svg10.dtd">
<svg version="1.0" xmlns="http://www.w3.org/2000/svg"
 width="582.000000pt" height="275.000000pt" viewBox="0 0 582.000000 275.000000"
 preserveAspectRatio="xMidYMid meet">

<g transform="translate(0.000000,275.000000) scale(0.100000,-0.100000)"
fill="#000000" stroke="none">
<path d="M205 1723 c-40 -10 -84 -53 -95 -93 -7 -26 -10 -257 -8 -699 3 -649
3 -660 24 -688 47 -64 39 -63 577 -63 539 0 539 0 577 62 19 32 20 49 20 706
0 760 3 724 -74 762 -41 19 -58 20 -522 19 -263 -1 -488 -4 -499 -6z m635
-281 c0 -10 -7 -28 -16 -40 -8 -12 -23 -46 -33 -75 l-18 -52 -76 -3 -76 -3
-11 43 c-7 24 -21 58 -32 75 -22 38 -17 58 12 43 25 -14 56 -13 80 2 16 10 24
10 40 0 27 -16 41 -15 70 8 32 25 60 26 60 2z m-47 -217 c1 -6 -35 -11 -90
-13 -85 -3 -105 3 -86 22 11 10 173 2 176 -9z m9 -92 c18 -27 60 -84 93 -128
82 -107 112 -161 131 -236 17 -66 13 -133 -11 -180 -24 -45 -88 -99 -145 -121
-81 -32 -251 -31 -335 2 -172 67 -214 235 -105 420 15 25 64 95 110 155 45 61
85 116 87 123 4 8 28 12 74 12 l68 0 33 -47z"/>
<path d="M649 1386 c-25 -10 -25 -13 -14 -46 11 -33 14 -35 62 -38 49 -3 50
-3 62 35 7 21 14 43 17 48 5 14 -94 14 -127 1z"/>
<path d="M563 1023 c-140 -189 -175 -271 -158 -374 10 -59 70 -122 143 -149
71 -27 213 -30 293 -7 62 18 130 72 149 116 7 19 11 59 9 103 -5 91 -27 135
-152 304 l-91 124 -53 0 -52 0 -88 -117z m155 -136 c2 -16 10 -27 18 -27 20 0
64 -45 64 -65 0 -21 -26 -19 -42 3 -26 36 -38 35 -38 -1 0 -30 4 -37 30 -46
61 -21 61 -101 0 -124 -16 -6 -30 -20 -32 -31 -4 -26 -28 -33 -28 -8 0 12 -14
28 -35 41 -39 23 -51 42 -40 69 6 15 9 14 29 -10 30 -38 46 -35 46 6 0 29 -5
36 -30 44 -42 15 -58 53 -36 87 9 14 28 30 42 35 17 7 24 17 24 36 0 34 24 26
28 -9z"/>
<path d="M660 815 c-10 -12 -10 -18 0 -30 15 -18 30 -11 30 15 0 26 -15 33
-30 15z"/>
<path d="M720 690 c0 -19 5 -30 14 -30 19 0 29 30 15 46 -18 22 -29 16 -29
-16z"/>
<path d="M4850 1182 c0 -48 -9 -62 -42 -62 -40 0 -35 -33 7 -40 l30 -5 5 -108
c4 -81 9 -110 20 -117 44 -29 110 -23 110 10 0 16 -7 20 -34 20 -42 0 -46 9
-46 116 l0 84 35 0 c19 0 35 5 35 10 0 6 0 13 0 18 1 4 -14 9 -32 12 -30 5
-33 9 -38 45 -4 32 -9 41 -27 43 -20 3 -23 -1 -23 -26z"/>
<path d="M1674 1120 c-12 -5 -25 -13 -29 -19 -9 -16 -25 -13 -25 4 0 9 -9 15
-25 15 l-25 0 0 -140 0 -140 25 0 c25 0 25 1 25 79 0 123 21 161 88 161 45 0
54 -19 60 -135 5 -102 6 -105 28 -105 24 0 24 2 24 98 0 122 12 145 73 140 56
-4 67 -28 67 -145 0 -92 0 -93 25 -93 25 0 25 0 25 95 0 62 -5 108 -16 133
-25 64 -93 81 -156 38 l-35 -23 -22 23 c-24 25 -67 31 -107 14z"/>
<path d="M2164 1111 c-95 -58 -108 -170 -29 -240 112 -98 282 5 243 147 -25
94 -135 141 -214 93z m127 -44 c48 -37 53 -115 10 -158 -64 -64 -161 -19 -161
76 0 63 31 95 92 95 24 0 50 -6 59 -13z"/>
<path d="M2547 1110 c-30 -24 -37 -25 -37 -5 0 9 -9 15 -25 15 l-25 0 0 -140
0 -140 24 0 c24 0 24 2 28 101 3 92 5 103 27 120 30 24 83 25 104 1 14 -15 17
-40 17 -120 l0 -102 25 0 25 0 0 116 c0 114 0 116 -29 145 -36 36 -95 40 -134
9z"/>
<path d="M2860 1108 c-53 -37 -72 -70 -72 -126 0 -65 25 -107 80 -133 51 -25
115 -20 156 12 48 38 20 58 -40 29 -46 -22 -83 -17 -119 16 -49 45 -36 53 88
56 l112 3 -2 42 c-1 23 -9 53 -19 68 -37 57 -125 73 -184 33z m120 -28 c19
-10 43 -64 33 -74 -4 -3 -44 -6 -90 -6 -95 0 -104 10 -54 61 31 30 75 38 111
19z"/>
<path d="M3703 1111 c-26 -16 -32 -17 -37 -5 -3 8 -15 14 -26 14 -19 0 -20 -6
-20 -140 l0 -140 24 0 c24 0 24 2 28 99 4 114 18 141 74 141 55 0 64 -18 64
-136 l0 -104 25 0 c25 0 25 0 25 94 0 79 3 97 21 120 16 20 29 26 59 26 21 0
42 -6 47 -12 4 -7 10 -60 13 -118 5 -100 6 -105 28 -108 22 -3 22 -2 22 113 0
115 0 117 -29 146 -39 38 -97 40 -138 5 l-28 -24 -28 24 c-35 29 -80 31 -124
5z"/>
<path d="M4205 1111 c-64 -39 -88 -95 -73 -166 23 -101 151 -147 233 -83 46
36 18 58 -38 29 -21 -10 -48 -16 -66 -13 -34 5 -81 43 -81 67 0 13 18 15 115
15 l115 0 0 30 c0 108 -116 177 -205 121z m124 -38 c11 -10 22 -29 23 -43 3
-25 2 -25 -84 -28 -101 -3 -111 7 -59 59 35 34 87 39 120 12z"/>
<path d="M4572 1110 c-39 -24 -42 -24 -42 -4 0 10 -7 14 -22 12 -22 -3 -23 -6
-26 -140 l-3 -138 26 0 c25 0 25 1 25 79 0 87 13 137 40 151 22 12 70 13 88 2
20 -13 32 -71 32 -155 0 -76 1 -78 23 -75 21 3 22 7 22 109 0 116 -10 149 -52
168 -36 16 -74 13 -111 -9z"/>
<path d="M5120 1112 c-130 -65 -92 -264 53 -279 56 -6 124 29 149 77 68 131
-69 269 -202 202z m136 -55 c33 -29 39 -98 12 -139 -19 -30 -70 -45 -113 -34
-65 16 -84 127 -30 173 36 31 95 31 131 0z"/>
<path d="M5499 1110 c-23 -17 -28 -18 -33 -5 -3 8 -14 15 -24 15 -17 0 -20
-10 -25 -80 -3 -44 -3 -107 0 -140 5 -55 8 -61 27 -58 19 3 21 11 26 99 3 57
10 102 18 112 7 8 31 18 53 22 33 6 39 11 39 31 0 20 -5 24 -27 24 -16 0 -40
-10 -54 -20z"/>
<path d="M3120 1108 c0 -7 25 -72 55 -144 50 -120 54 -135 43 -161 -19 -45
-39 -63 -70 -63 -25 0 -29 -4 -26 -22 7 -49 96 -29 122 26 18 38 146 364 146
372 0 3 -12 4 -26 2 -23 -3 -30 -14 -61 -98 -18 -52 -38 -99 -43 -104 -10 -10
-16 2 -64 132 -24 62 -31 72 -52 72 -13 0 -24 -5 -24 -12z"/>
</g>
</svg>
